<?xml version="1.0" encoding="iso-8859-1"?>
<!-- Generator: Adobe Illustrator 18.1.1, SVG Export Plug-In . SVG Version: 6.00 Build 0)  -->
<svg fill="#757575" version="1.1" id="Capa_1" xmlns="http://www.w3.org/2000/svg" xmlns:xlink="http://www.w3.org/1999/xlink" x="0px" y="0px"
	 viewBox="0 0 185.8 185.8" style="enable-background:new 0 0 185.8 185.8;" xml:space="preserve">
<g>
	<g>
		<path d="M150.866,50.489c-8.063-14.394-23.939-22.651-40.96-19.931
			C103.225,16.533,89.246,7.625,73.524,7.625c-22.25,0-40.362,18.105-40.362,40.359c0,0.916,0.047,1.865,0.129,2.849
			C14.086,55.206,0,72.545,0,92.511c0,23.592,19.197,42.785,42.796,42.785h33.82v-7.068h-33.82
			c-19.702,0-35.731-16.023-35.731-35.717c0-17.633,13.17-32.814,30.631-35.316c0.934-0.132,1.779-0.637,2.337-1.399
			c0.558-0.759,0.798-1.714,0.651-2.648c-0.301-1.915-0.447-3.604-0.447-5.164c0-18.36,14.931-33.294,33.29-33.294
			c13.775,0,25.947,8.31,30.982,21.169c0.641,1.628,2.373,2.548,4.091,2.154c15.518-3.59,30.091,3.905,36.812,17.268
			c0.523,1.034,1.514,1.746,2.659,1.911c17.483,2.487,30.66,17.672,30.66,35.323c0,19.698-16.026,35.717-35.721,35.717H97.975v7.068
			h45.033c23.588,0,42.792-19.193,42.792-42.785C185.8,71.976,170.904,54.225,150.866,50.489z"/>
		<path d="M104.13,151.849l-14.004,14V68.029c0-1.993-1.614-3.611-3.604-3.611
			c-2.001,0-3.615,1.618-3.615,3.611v97.939l-14.122-14.119c-1.403-1.414-3.686-1.414-5.1,0c-1.414,1.406-1.414,3.697,0,5.111
			l20.156,20.16c0.709,0.705,1.636,1.056,2.548,1.056l0.064-0.007c0.029,0,0.047,0.007,0.047,0.007c0.956,0,1.879-0.365,2.57-1.056
			l20.156-20.16c1.421-1.414,1.421-3.704,0-5.111C107.816,150.439,105.53,150.439,104.13,151.849z"/>
	</g>
</g>
<g>
</g>
<g>
</g>
<g>
</g>
<g>
</g>
<g>
</g>
<g>
</g>
<g>
</g>
<g>
</g>
<g>
</g>
<g>
</g>
<g>
</g>
<g>
</g>
<g>
</g>
<g>
</g>
<g>
</g>
</svg>
