<?xml version="1.0" encoding="iso-8859-1"?>
<!-- Generator: Adobe Illustrator 18.1.1, SVG Export Plug-In . SVG Version: 6.00 Build 0)  -->
<svg fill="#757575" version="1.1" id="Capa_1" xmlns="http://www.w3.org/2000/svg" xmlns:xlink="http://www.w3.org/1999/xlink" x="0px" y="0px"
	 viewBox="0 0 470.392 470.392" style="enable-background:new 0 0 470.392 470.392;" xml:space="preserve">
<g>
	<path d="M83.432,63.748v162.523c0,4.487,3.633,8.129,8.129,8.129c4.495,0,8.129-3.642,8.129-8.129V63.748
		c0-4.487-3.633-8.129-8.129-8.129S83.432,59.261,83.432,63.748z"/>
	<path d="M99.689,406.644v-53.372c0-4.487-3.633-8.129-8.129-8.129s-8.129,3.642-8.129,8.129v53.372
		c0,4.487,3.633,8.129,8.129,8.129C96.055,414.773,99.689,411.139,99.689,406.644z"/>
	<path d="M244.077,112.471V63.748c0-4.487-3.633-8.129-8.129-8.129s-8.129,3.642-8.129,8.129v48.723
		c0,4.487,3.633,8.129,8.129,8.129C240.435,120.6,244.077,116.958,244.077,112.471z"/>
	<path d="M244.077,406.644V242.528c0-4.487-3.633-8.129-8.129-8.129s-8.129,3.642-8.129,8.129v164.116
		c0,4.487,3.633,8.129,8.129,8.129C240.435,414.773,244.077,411.139,244.077,406.644z"/>
	<path d="M378.84,55.62c-4.495,0-8.129,3.642-8.129,8.129v133.057c0,4.487,3.633,8.129,8.129,8.129
		s8.129-3.642,8.129-8.129V63.748C386.969,59.261,383.327,55.62,378.84,55.62z"/>
	<path d="M386.969,406.644v-80.798c0-4.487-3.633-8.129-8.129-8.129s-8.129,3.642-8.129,8.129v80.798
		c0,4.487,3.633,8.129,8.129,8.129C383.327,414.773,386.969,411.139,386.969,406.644z"/>
	<path d="M140.763,337.34c23.353,0,42.35-18.996,42.35-42.35c0-23.353-18.996-42.35-42.35-42.35H42.358
		C19.005,252.64,0,271.637,0,294.99c0,23.353,19.005,42.35,42.358,42.35H140.763z M16.257,294.99
		c0-14.388,11.705-26.093,26.101-26.093h98.396c14.388,0,26.093,11.705,26.093,26.093s-11.705,26.093-26.093,26.093H42.358
		C27.97,321.083,16.257,309.378,16.257,294.99z"/>
	<path d="M327.5,179.475c0-23.353-19.005-42.358-42.358-42.358h-98.396c-23.353,0-42.35,18.996-42.35,42.358
		c0,23.353,18.996,42.35,42.35,42.35h98.396C308.496,221.825,327.5,202.828,327.5,179.475z M285.142,205.568h-98.396
		c-14.379,0-26.093-11.705-26.093-26.093s11.705-26.101,26.093-26.101h98.396c14.396,0,26.101,11.713,26.101,26.101
		C311.243,193.862,299.538,205.568,285.142,205.568z"/>
	<path d="M428.035,218.403h-98.396c-23.353,0-42.35,18.996-42.35,42.358c0,23.353,18.996,42.35,42.35,42.35
		h98.396c23.353,0,42.358-18.996,42.358-42.35C470.392,237.407,451.396,218.403,428.035,218.403z M428.035,286.861h-98.396
		c-14.388,0-26.093-11.705-26.093-26.093c0-14.396,11.705-26.101,26.093-26.101h98.396c14.396,0,26.101,11.705,26.101,26.101
		C454.135,275.148,442.43,286.861,428.035,286.861z"/>
</g>
<g>
</g>
<g>
</g>
<g>
</g>
<g>
</g>
<g>
</g>
<g>
</g>
<g>
</g>
<g>
</g>
<g>
</g>
<g>
</g>
<g>
</g>
<g>
</g>
<g>
</g>
<g>
</g>
<g>
</g>
</svg>
